<?xml version="1.0" encoding="UTF-8"?>
<svg version="1.1" xmlns="http://www.w3.org/2000/svg" width="2550" height="2550">
<path d="M0 0 C0.94262618 -0.00165078 1.88525236 -0.00330156 2.85644298 -0.00500236 C6.00316384 -0.0093033 9.14983734 -0.00653363 12.29655933 -0.00377727 C14.58989368 -0.00542804 16.88322775 -0.00751483 19.17656136 -0.00999737 C25.49299442 -0.0155592 31.80941391 -0.01489248 38.12584864 -0.01321978 C44.28415158 -0.01207405 50.44245182 -0.01660069 56.60075322 -0.0204838 C69.3490462 -0.0283487 82.09733638 -0.03144542 94.8456316 -0.03192973 C107.76406967 -0.03243233 120.68250461 -0.0350814 133.60094166 -0.04033732 C134.41708491 -0.04066746 135.23322816 -0.04099759 136.07410302 -0.04133773 C139.39819563 -0.04268775 142.72228823 -0.04405042 146.04638082 -0.04542983 C185.39157847 -0.06172805 224.73677551 -0.06811808 264.08197595 -0.0728777 C283.67795947 -0.0752616 303.27394265 -0.07896523 322.86992591 -0.0829148 C385.7422046 -0.09557951 448.61448328 -0.1063629 511.48676323 -0.10975526 C514.49146236 -0.1099175 517.49616148 -0.11008306 520.50086061 -0.11024964 C526.52673748 -0.11058344 532.55261434 -0.11091392 538.57849121 -0.1112442 C545.63318703 -0.1116311 552.68788284 -0.11202071 559.74257865 -0.11241527 C561.76168286 -0.11252769 563.78078706 -0.1126391 565.79989127 -0.11274952 C630.62916256 -0.116298 695.45842276 -0.13137234 760.28768982 -0.15468726 C806.87427434 -0.17143468 853.46085677 -0.18690641 900.04744434 -0.19142222 C901.00604354 -0.19151571 901.96464274 -0.1916092 902.95229041 -0.19170551 C923.9987585 -0.19372482 945.04522656 -0.19488065 966.09169475 -0.1952341 C973.62318047 -0.19537027 981.1546662 -0.19557926 988.68615192 -0.19582735 C990.55974523 -0.19588891 992.43333854 -0.19594723 994.30693186 -0.1960023 C1024.13117221 -0.19692118 1053.95540097 -0.20687811 1083.77963751 -0.22145979 C1113.83256791 -0.23609443 1143.88548411 -0.2411061 1173.93841744 -0.23304025 C1178.09778625 -0.23192498 1182.25715508 -0.23091429 1186.41652393 -0.22996593 C1187.63946985 -0.22968097 1187.63946985 -0.22968097 1188.88712175 -0.22939027 C1201.76009471 -0.22666409 1214.63304128 -0.23397453 1227.5060085 -0.24553929 C1240.18597941 -0.2567195 1252.86591328 -0.25707213 1265.54588481 -0.24616911 C1272.31968683 -0.2406346 1279.09338666 -0.24004213 1285.8671869 -0.25267783 C1337.3820871 -0.34285209 1337.3820871 -0.34285209 1359.05994129 3.1276505 C1360.52273607 3.34095489 1361.98583976 3.55215718 1363.44931793 3.76072121 C1366.68917155 4.23621822 1369.90271685 4.78211981 1373.12244129 5.3776505 C1374.26616199 5.58672032 1375.4098827 5.79579015 1376.5882616 6.01119542 C1430.03037211 16.16284667 1481.46757341 38.59672929 1525.05994129 71.1276505 C1525.64130848 71.55884191 1526.22267567 71.99003331 1526.82166004 72.43429112 C1550.23880053 89.87657769 1573.11472667 110.03981926 1591.05994129 133.1276505 C1592.63982666 134.98475596 1594.22338159 136.83874379 1595.80994129 138.6901505 C1644.57761624 197.33196056 1677.38107485 278.3801876 1677.18759179 355.06770921 C1677.19006796 356.48164848 1677.19006796 356.48164848 1677.19259415 357.92415218 C1677.19689509 361.07087305 1677.19412542 364.21754655 1677.19136906 367.36426854 C1677.19301983 369.65760289 1677.19510662 371.95093696 1677.19758916 374.24427056 C1677.20315099 380.56070363 1677.20248427 386.87712312 1677.20081157 393.19355784 C1677.19966584 399.35186079 1677.20419248 405.51016102 1677.20807559 411.66846243 C1677.21594049 424.41675541 1677.21903721 437.16504559 1677.21952152 449.91334081 C1677.22002412 462.83177888 1677.2226732 475.75021382 1677.22792912 488.66865087 C1677.22825925 489.48479411 1677.22858938 490.30093736 1677.22892952 491.14181223 C1677.23027954 494.46590483 1677.23164221 497.78999744 1677.23302163 501.11409003 C1677.24931984 540.45928767 1677.25570987 579.80448471 1677.2604695 619.14968516 C1677.26285339 638.74566868 1677.26655702 658.34165186 1677.27050659 677.93763512 C1677.2831713 740.80991381 1677.29395469 803.68219249 1677.29734705 866.55447244 C1677.29750929 869.55917156 1677.29767485 872.56387069 1677.29784144 875.56856982 C1677.29817523 881.59444668 1677.29850571 887.62032355 1677.29883599 893.64620042 C1677.29922289 900.70089623 1677.2996125 907.75559205 1677.30000706 914.81028786 C1677.30011948 916.82939206 1677.30023089 918.84849627 1677.30034131 920.86760047 C1677.30388979 985.69687176 1677.31896413 1050.52613197 1677.34227905 1115.35539903 C1677.35902647 1161.94198355 1677.3744982 1208.52856598 1677.37901402 1255.11515355 C1677.37915424 1256.55305235 1677.37915424 1256.55305235 1677.37929731 1258.01999961 C1677.38131661 1279.06646771 1677.38247244 1300.11293577 1677.38282589 1321.15940396 C1677.38296206 1328.69088968 1677.38317105 1336.2223754 1677.38341914 1343.75386113 C1677.3834807 1345.62745444 1677.38353902 1347.50104775 1677.38359409 1349.37464106 C1677.38451297 1379.19888142 1677.39446991 1409.02311018 1677.40905158 1438.84734672 C1677.42368622 1468.90027712 1677.42869789 1498.95319332 1677.42063204 1529.00612665 C1677.41951677 1533.16549546 1677.41850608 1537.32486429 1677.41755772 1541.48423314 C1677.41736775 1542.29953042 1677.41717778 1543.1148277 1677.41698206 1543.95483096 C1677.41425588 1556.82780392 1677.42156632 1569.70075048 1677.43313108 1582.57371771 C1677.44431129 1595.25368862 1677.44466392 1607.93362248 1677.4337609 1620.61359401 C1677.4282264 1627.38739604 1677.42763392 1634.16109587 1677.44026962 1640.93489611 C1677.53054441 1692.57911397 1677.53054441 1692.57911397 1674.05994129 1714.1276505 C1673.75618221 1716.14205062 1673.45303792 1718.15654354 1673.15048814 1720.17112565 C1662.6953828 1789.18705605 1631.00042092 1853.89136952 1585.05994129 1906.1276505 C1584.24783192 1907.05190831 1583.43572254 1907.97616612 1582.59900379 1908.92843175 C1570.66529207 1922.2023911 1558.16710214 1935.16273887 1544.05994129 1946.1276505 C1542.20283583 1947.70753587 1540.348848 1949.2910908 1538.49744129 1950.8776505 C1479.8911575 1999.66587129 1398.80327211 2032.44877363 1322.11988258 2032.255301 C1320.70594331 2032.25777717 1320.70594331 2032.25777717 1319.26343961 2032.26030336 C1316.11671875 2032.2646043 1312.97004525 2032.26183463 1309.82332325 2032.25907826 C1307.5299889 2032.26072903 1305.23665483 2032.26281583 1302.94332123 2032.26529837 C1296.62688817 2032.27086019 1290.31046867 2032.27019348 1283.99403395 2032.26852078 C1277.835731 2032.26737505 1271.67743077 2032.27190169 1265.51912936 2032.2757848 C1252.77083638 2032.2836497 1240.0225462 2032.28674642 1227.27425098 2032.28723073 C1214.35581291 2032.28773333 1201.43737797 2032.2903824 1188.51894093 2032.29563832 C1187.29472605 2032.29613352 1187.29472605 2032.29613352 1186.04577956 2032.29663873 C1182.72168696 2032.29798875 1179.39759435 2032.29935142 1176.07350176 2032.30073083 C1136.72830412 2032.31702905 1097.38310708 2032.32341908 1058.03790663 2032.3281787 C1038.44192311 2032.3305626 1018.84593993 2032.33426622 999.24995667 2032.3382158 C936.37767798 2032.35088051 873.5053993 2032.3616639 810.63311935 2032.36505626 C807.62842023 2032.3652185 804.6237211 2032.36538406 801.61902197 2032.36555064 C795.59314511 2032.36588444 789.56726824 2032.36621492 783.54139137 2032.3665452 C776.48669556 2032.3669321 769.43199974 2032.3673217 762.37730393 2032.36771626 C760.35819973 2032.36782868 758.33909552 2032.3679401 756.31999132 2032.36805052 C691.49072003 2032.37159899 626.66145983 2032.38667334 561.83219277 2032.40998826 C515.24560824 2032.42673568 468.65902581 2032.44220741 422.07243824 2032.44672322 C421.11383904 2032.44681671 420.15523984 2032.44691019 419.16759218 2032.44700651 C398.12112408 2032.44902582 377.07465602 2032.45018165 356.02818783 2032.4505351 C348.49670211 2032.45067127 340.96521639 2032.45088026 333.43373066 2032.45112835 C331.56013735 2032.45118991 329.68654404 2032.45124823 327.81295073 2032.4513033 C297.98871037 2032.45222218 268.16448161 2032.46217911 238.34024507 2032.47676079 C208.28731467 2032.49139543 178.23439848 2032.4964071 148.18146514 2032.48834124 C144.02209633 2032.48722598 139.8627275 2032.48621529 135.70335865 2032.48526692 C134.88806137 2032.48507696 134.07276409 2032.48488699 133.23276083 2032.48469126 C120.35978787 2032.48196508 107.48684131 2032.48927553 94.61387408 2032.50084029 C81.93390317 2032.51202049 69.25396931 2032.51237313 56.57399778 2032.50147011 C49.80019576 2032.4959356 43.02649592 2032.49534313 36.25269568 2032.50797883 C-15.26220452 2032.59815309 -15.26220452 2032.59815309 -36.94005871 2029.1276505 C-38.40285348 2028.91434611 -39.86595718 2028.70314382 -41.32943535 2028.49457979 C-44.56928897 2028.01908278 -47.78283426 2027.47318119 -51.00255871 2026.8776505 C-52.14627941 2026.66858068 -53.29000011 2026.45951085 -54.46837902 2026.24410558 C-107.91048953 2016.09245433 -159.34769083 1993.65857171 -202.94005871 1961.1276505 C-203.81210949 1960.48086339 -203.81210949 1960.48086339 -204.70177746 1959.82100987 C-228.11891794 1942.37872331 -250.99484408 1922.21548174 -268.94005871 1899.1276505 C-270.51994408 1897.27054504 -272.10349901 1895.41655721 -273.69005871 1893.5651505 C-322.45773366 1834.92334044 -355.26119227 1753.8751134 -355.06770921 1677.18759179 C-355.07018538 1675.77365252 -355.07018538 1675.77365252 -355.07271157 1674.33114881 C-355.07701251 1671.18442795 -355.07424284 1668.03775445 -355.07148647 1664.89103246 C-355.07313724 1662.59769811 -355.07522404 1660.30436404 -355.07770658 1658.01103044 C-355.0832684 1651.69459737 -355.08260169 1645.37817788 -355.08092899 1639.06174316 C-355.07978326 1632.90344021 -355.0843099 1626.74513997 -355.08819301 1620.58683857 C-355.0960579 1607.83854559 -355.09915462 1595.09025541 -355.09963894 1582.34196019 C-355.10014154 1569.42352212 -355.10279061 1556.50508718 -355.10804653 1543.58665013 C-355.10854173 1542.36243526 -355.10854173 1542.36243526 -355.10904694 1541.11348877 C-355.11039696 1537.78939616 -355.11175962 1534.46530356 -355.11313904 1531.14121097 C-355.12943725 1491.79601332 -355.13582729 1452.45081629 -355.14058691 1413.10561584 C-355.1429708 1393.50963232 -355.14667443 1373.91364914 -355.15062401 1354.31766588 C-355.16328872 1291.44538719 -355.17407211 1228.57310851 -355.17746447 1165.70082856 C-355.17762671 1162.69612943 -355.17779227 1159.69143031 -355.17795885 1156.68673118 C-355.17829265 1150.66085431 -355.17862313 1144.63497745 -355.17895341 1138.60910058 C-355.17934031 1131.55440477 -355.17972991 1124.49970895 -355.18012447 1117.44501314 C-355.18023689 1115.42590893 -355.18034831 1113.40680473 -355.18045873 1111.38770053 C-355.1840072 1046.55842923 -355.19908155 981.72916903 -355.22239647 916.89990197 C-355.23914389 870.31331745 -355.25461562 823.72673502 -355.25913143 777.14014745 C-355.25922492 776.18154825 -355.2593184 775.22294905 -355.25941472 774.23530139 C-355.26143403 753.18883329 -355.26258986 732.14236523 -355.26294331 711.09589704 C-355.26307948 703.56441132 -355.26328847 696.03292559 -355.26353656 688.50143987 C-355.26359812 686.62784656 -355.26365644 684.75425325 -355.26371151 682.88065994 C-355.26463039 653.05641958 -355.27458732 623.23219082 -355.289169 593.40795428 C-355.30380364 563.35502388 -355.30881531 533.30210768 -355.30074945 503.24917435 C-355.29963419 499.08980554 -355.29862349 494.93043671 -355.29767513 490.77106786 C-355.29748516 489.95577058 -355.2972952 489.1404733 -355.29709947 488.30047004 C-355.29437329 475.42749708 -355.30168374 462.55455051 -355.3132485 449.68158329 C-355.3244287 437.00161238 -355.32478133 424.32167851 -355.31387832 411.64170698 C-355.30834381 404.86790496 -355.30775134 398.09420513 -355.32038704 391.32040489 C-355.41066183 339.67618703 -355.41066183 339.67618703 -351.94005871 318.1276505 C-351.63629963 316.11325038 -351.33315534 314.09875746 -351.03060555 312.08417535 C-342.31620221 254.55891518 -318.70670472 198.71595377 -283.94005871 152.1276505 C-283.5088673 151.54628331 -283.0776759 150.96491612 -282.63341808 150.36593175 C-265.19113152 126.94879126 -245.02788995 104.07286512 -221.94005871 86.1276505 C-220.08295325 84.54776513 -218.22896542 82.9642102 -216.37755871 81.3776505 C-157.73574864 32.60997555 -76.68752161 -0.19348306 0 0 Z " fill="#4E4E4E" transform="translate(614.9400587081909,259.8723495006561)"/>
<path d="M0 0 C0.75152344 0.33644531 1.50304688 0.67289063 2.27734375 1.01953125 C8.53804774 3.96758321 14.31695807 7.62499189 20.15087891 11.32421875 C25.00971662 14.40299412 29.92767194 17.2826814 35 20 C35 20.66 35 21.32 35 22 C35.83144531 22.22558594 36.66289063 22.45117188 37.51953125 22.68359375 C41.71810543 24.27160666 45.02747264 26.50301499 48.6875 29.0625 C50.00175957 29.97315799 51.31808838 30.88083875 52.63671875 31.78515625 C53.49849731 32.38662476 53.49849731 32.38662476 54.37768555 33.00024414 C56.14738322 34.17607071 56.14738322 34.17607071 59 35 C60.0074236 35.99252088 61.00579696 36.99423646 62 38 C63.93976272 39.4215276 65.90174293 40.81284489 67.875 42.1875 C80.99568357 51.43615864 93.84673963 61.16623889 106.13671875 71.49609375 C107.93305303 73.05559408 107.93305303 73.05559408 110 74 C110 74.66 110 75.32 110 76 C115.4983011 78.30994726 120.44686875 78.24357885 126.296875 78.16015625 C127.78009247 78.1523539 127.78009247 78.1523539 129.29327393 78.14439392 C132.44566813 78.12664318 135.59773165 78.09551688 138.75 78.0625 C141.88795465 78.03472408 145.02585691 78.00998359 148.16387939 77.99131775 C150.11179895 77.97923292 152.05969572 77.96180668 154.00750732 77.93800354 C160.07180584 77.89403822 165.97911848 78.29013959 172 79 C180.86584665 79.90257975 185.74913959 78.08550107 193 73 C193.89976562 72.48050781 194.79953125 71.96101562 195.7265625 71.42578125 C198.11570614 70.20203173 198.11570614 70.20203173 199 68 C199.99 68 200.98 68 202 68 C202.33 67.01 202.66 66.02 203 65 C205.15234375 63.45703125 205.15234375 63.45703125 207.9375 61.8125 C211.70487476 59.49708401 215.2163525 57.12859432 218.625 54.3125 C223.93519118 49.93738287 229.54304505 46.03313944 235.19970703 42.12426758 C235.90595215 41.63337646 236.61219727 41.14248535 237.33984375 40.63671875 C237.97269287 40.20061279 238.60554199 39.76450684 239.25756836 39.31518555 C241.00314961 37.99762267 242.46240964 36.55017819 244 35 C245.43315264 34.14386574 246.89417106 33.33323861 248.375 32.5625 C250.97961753 31.15969152 253.18153707 29.85477034 255.5 28 C257.70467107 26.23626314 259.71412429 25.01267686 262.1875 23.6875 C265.63770891 21.82793467 268.81465582 19.78373821 272 17.5 C275.70946642 14.85444496 279.43935725 12.53202856 283.453125 10.3828125 C286.05212257 8.97170032 288.60709413 7.49307653 291.16210938 6.00415039 C305.49582086 -2.31465746 319.79282819 -8.14077275 336.625 -3.8125 C353.14844991 1.84025918 366.15351927 13.4874174 374 29 C376.15596194 34.30185238 377.63603398 39.33451601 378.49609375 45.00390625 C378.67850868 46.15156212 378.67850868 46.15156212 378.86460876 47.32240295 C380.33439771 56.79482745 381.51234073 66.30851167 382.67993164 75.82202148 C383.06166729 78.93071876 383.44931764 82.03863508 383.83789062 85.14648438 C385.87005073 101.48717659 387.74477893 117.82942615 389 134.25 C389.51309312 140.69624131 390.08139415 147.09846547 391 153.5 C391.91466915 159.8812465 392.48174819 166.26248701 393 172.6875 C393.12918823 174.22821167 393.12918823 174.22821167 393.26098633 175.80004883 C393.66956712 180.70880554 394.04302631 185.61348693 394.32421875 190.53125 C395.03343354 201.41399367 396.81338445 208.79552321 403 218 C404.14840601 219.76916601 405.29427719 221.53998023 406.4375 223.3125 C407.01113281 224.19679688 407.58476563 225.08109375 408.17578125 225.9921875 C414.11962806 235.79253449 418.79473502 246.35810496 423 257 C423.42023437 258.0003125 423.84046875 259.000625 424.2734375 260.03125 C427.99123791 269.13422797 432 280.03582189 432 290 C438.27463057 291.95544994 443.5262824 289.60365235 449.5 287.625 C461.86590521 283.62288656 475.27623532 280.13638705 488 285 C491.19747025 286.76393775 494.0846003 288.80792863 497 291 C498.051875 291.70125 499.10375 292.4025 500.1875 293.125 C505.42751899 297.63317276 508.31787002 305.12530936 509.875 311.6875 C509.936875 313.3271875 509.936875 313.3271875 510 315 C510.03738281 315.70640625 510.07476563 316.4128125 510.11328125 317.140625 C510.45277525 327.64707074 507.37030047 335.12623386 500.25 342.9140625 C485.82431203 356.55835904 466.96390108 357.46401946 448.24560547 358.75048828 C445.83342369 358.93912039 445.83342369 358.93912039 443 360 C442.07634501 362.77096497 441.87146115 364.44860673 441.8671875 367.30859375 C441.86589844 368.13810547 441.86460937 368.96761719 441.86328125 369.82226562 C441.86714844 370.68529297 441.87101562 371.54832031 441.875 372.4375 C441.87113281 373.29666016 441.86726563 374.15582031 441.86328125 375.04101562 C441.86457031 375.87181641 441.86585938 376.70261719 441.8671875 377.55859375 C441.86831543 378.31454834 441.86944336 379.07050293 441.87060547 379.84936523 C442.00085547 382.01421854 442.40585217 383.91871253 443 386 C444.13953125 386.21914062 445.2790625 386.43828125 446.453125 386.6640625 C455.35697886 388.4281142 464.1125928 390.46291967 472.8125 393.0625 C473.64104492 393.30758301 474.46958984 393.55266602 475.32324219 393.80517578 C479.7910652 395.17334362 483.87404081 396.7609529 488 399 C488 399.66 488 400.32 488 401 C488.58007812 401.103125 489.16015625 401.20625 489.7578125 401.3125 C497.15853668 403.58171159 502.4931171 411.49970304 506 418 C510.17848076 427.25572908 509.64622427 434.68663185 506.2578125 444.10546875 C502.44633696 452.87659725 494.66125486 460.87559293 486 465 C474.13413377 469.65540372 464.69287438 468.52298997 453 464 C451.22882813 463.35224609 451.22882813 463.35224609 449.421875 462.69140625 C440.30932574 459.30932574 440.30932574 459.30932574 438 457 C432.96212855 454.47527362 428.58996969 453.65062689 423 454 C422.6596875 454.680625 422.319375 455.36125 421.96875 456.0625 C420.92812487 458.14375026 419.88634182 460.22442175 418.84375 462.3046875 C417.5618669 464.86706638 416.29323933 467.43558131 415.03125 470.0078125 C411.32138102 477.54597916 407.51134973 484.90141838 403 492 C402.31035156 493.09957031 401.62070313 494.19914062 400.91015625 495.33203125 C396.67667439 502.03420512 392.27107086 508.53324623 387.53125 514.890625 C385.97534911 516.91302723 385.97534911 516.91302723 385 519 C384.34 519 383.68 519 383 519 C382.75894531 519.54914062 382.51789062 520.09828125 382.26953125 520.6640625 C380.70732161 523.53852823 378.78162278 525.86205266 376.6875 528.375 C375.88570312 529.33792969 375.08390625 530.30085938 374.2578125 531.29296875 C373.51273438 532.18628906 372.76765625 533.07960938 372 534 C371.19175781 535.01513672 371.19175781 535.01513672 370.3671875 536.05078125 C369.28886555 537.40352645 368.15147479 538.70895251 367 540 C366.34 540 365.68 540 365 540 C364.67 540.99 364.34 541.98 364 543 C363.34 543 362.68 543 362 543 C361.67 543.99 361.34 544.98 361 546 C360.34 546 359.68 546 359 546 C358.67 546.99 358.34 547.98 358 549 C357.34 549 356.68 549 356 549 C355.67 549.99 355.34 550.98 355 552 C350.79573675 556.33007661 345.86399057 559.95362355 340.95703125 563.4453125 C338.88279403 565.02223843 338.88279403 565.02223843 336.84375 567.2421875 C333.06995521 570.90193904 328.93111316 573.90893236 324.6875 577 C323.87087891 577.60328125 323.05425781 578.2065625 322.21289062 578.828125 C308.33712636 589 308.33712636 589 305 589 C305 589.66 305 590.32 305 591 C302.58459694 591.98238408 300.16778178 592.96100218 297.75 593.9375 C297.06808594 594.21529297 296.38617187 594.49308594 295.68359375 594.77929688 C285.85251146 598.74036401 273.66783595 600.24006067 263.5 596.375 C257.265641 593.36971925 250.81639179 589.93395087 247 584 C247 583.34 247 582.68 247 582 C246.34 582 245.68 582 245 582 C243.9605998 580.0201901 242.9711225 578.01418 242 576 C241.443125 574.865625 240.88625 573.73125 240.3125 572.5625 C237.38692883 564.51330949 237.73828596 554.02290635 240.9765625 546.10546875 C241.31429687 545.41066406 241.65203125 544.71585938 242 544 C242.37898438 543.19175781 242.75796875 542.38351562 243.1484375 541.55078125 C247.13795546 534.02143088 253.74254869 526.75248377 262 524 C262 523.34 262 522.68 262 522 C263.60131836 520.61474609 263.60131836 520.61474609 265.83984375 519.0234375 C267.05812866 518.14582764 267.05812866 518.14582764 268.30102539 517.25048828 C269.17106201 516.63157715 270.04109863 516.01266602 270.9375 515.375 C277.09546208 510.93388253 283.02598641 506.52631488 288.50390625 501.2578125 C290 500 290 500 292 500 C292 499.34 292 498.68 292 498 C293.609375 496.34375 293.609375 496.34375 295.75 494.5 C296.44609375 493.8915625 297.1421875 493.283125 297.859375 492.65625 C300 491 300 491 302.140625 490.03125 C304.53994075 488.70053707 304.80343379 487.45296072 306 485 C307.80235762 482.99801416 309.62528636 481.05616858 311.5 479.125 C317.73889936 472.54531646 322.88447023 465.46494985 328 458 C328.89947993 456.75538026 329.80052381 455.5118893 330.703125 454.26953125 C332.65099441 451.49679877 333.93712391 449.18862826 335 446 C335.66 446 336.32 446 337 446 C337.1134375 445.28070312 337.226875 444.56140625 337.34375 443.8203125 C338.03411876 440.85337056 339.08487354 438.56538577 340.5 435.875 C341.88219118 433.23115758 343.05451687 430.8364494 344 428 C344.66 428 345.32 428 346 428 C346.11859375 427.13761719 346.2371875 426.27523438 346.359375 425.38671875 C347.00426537 421.97745074 348.00501562 419.0470955 349.25 415.8125 C361.56597929 381.85456866 363.80221757 345.2561301 356 310 C355.76152344 308.845 355.52304688 307.69 355.27734375 306.5 C352.1728464 292.81790391 347.22236476 279.54673551 341 267 C340.59007812 266.13117188 340.18015625 265.26234375 339.7578125 264.3671875 C335.24288778 254.95371701 329.41813617 246.42051672 323.28515625 237.99609375 C322 236 322 236 322 234 C321.34 234 320.68 234 320 234 C316 229.52941176 316 229.52941176 316 227 C315.34 227 314.68 227 314 227 C312.58984375 225.56640625 312.58984375 225.56640625 310.9375 223.5625 C304.79349298 216.36269053 298.33316566 209.96398132 290.65234375 204.41015625 C289.83443359 203.71212891 289.83443359 203.71212891 289 203 C289 202.34 289 201.68 289 201 C288.26523438 200.73960937 287.53046875 200.47921875 286.7734375 200.2109375 C283.94615788 198.97649147 281.99401464 197.58349947 279.625 195.625 C273.71627722 190.74761792 267.01923479 187.43331845 260.1875 184.0625 C258.7628655 183.35838711 257.3383857 182.65396115 255.9140625 181.94921875 C255.23504883 181.61325684 254.55603516 181.27729492 253.85644531 180.93115234 C252.33853492 180.16980171 250.83497218 179.37990455 249.3359375 178.58203125 C235.83782484 171.41550752 221.12519456 167.82263445 206.30810547 164.52929688 C204.23524351 164.05394626 202.18441087 163.52883745 200.12890625 162.984375 C190.08622479 160.47025806 179.93147928 159.5395827 169.625 158.875 C168.41328125 158.78863281 167.2015625 158.70226562 165.953125 158.61328125 C152.90302629 157.73678208 140.01215241 157.91248513 126.97387695 158.79956055 C124.90806584 158.9394938 122.84182259 159.07076008 120.77539062 159.20117188 C115.44199342 159.55088776 110.24102701 159.90573793 105 161 C95.96522023 161.58629954 88.00708688 161.76943871 80 157 C79.31164063 156.67515625 78.62328125 156.3503125 77.9140625 156.015625 C75.11499875 154.5304075 73.23373118 152.23373118 71 150 C70.01 149.34 69.02 148.68 68 148 C65 146 65 146 62.75 143.6875 C59.706276 140.71295155 56.50158867 138.39424866 53 136 C48.55800571 132.96273895 44.79638954 129.8479534 41 126 C39.05913003 124.63754893 39.05913003 124.63754893 37.1875 123.6875 C36.135625 123.130625 35.08375 122.57375 34 122 C34 121.34 34 120.68 34 120 C33.45214844 119.74863281 32.90429688 119.49726562 32.33984375 119.23828125 C25.42482691 115.57874813 19.49696516 110.49696516 14 105 C11.37009111 103.12966107 8.70708951 101.32539762 6.01171875 99.55078125 C5.01591797 98.78314453 5.01591797 98.78314453 4 98 C4 97.34 4 96.68 4 96 C2.68 95.67 1.36 95.34 0 95 C0 94.34 0 93.68 0 93 C-0.8353125 92.5978125 -0.8353125 92.5978125 -1.6875 92.1875 C-4 91 -4 91 -6.4375 89.4375 C-9.02061794 87.98843384 -11.08759012 87.41605855 -14 87 C-15.93729567 90.54578427 -17.12913627 94.22571582 -18.375 98.0625 C-19.85691693 102.59680502 -21.38131478 107.0970594 -23.0625 111.5625 C-24.58885839 115.68182866 -25.82755272 119.82891605 -27 124.0625 C-28.40249053 129.100466 -30.04605263 133.8825555 -32.0625 138.703125 C-33.57308694 142.404063 -34.76929187 146.19908373 -36 150 C-36.33451172 150.97259766 -36.33451172 150.97259766 -36.67578125 151.96484375 C-38.42544886 157.05745172 -39.94178338 162.20367531 -41.4375 167.375 C-42.81917443 172.14450309 -44.2443928 176.85155015 -46 181.5 C-48.45724849 188.04939937 -50.34153767 194.75970591 -52.27294922 201.47753906 C-53.33631695 205.16683235 -54.41434039 208.85181011 -55.49145508 212.53710938 C-56.08494552 214.56930985 -56.6772129 216.60186788 -57.26831055 218.63476562 C-58.77191949 223.80578283 -60.28690758 228.97286937 -61.828125 234.1328125 C-65.42786995 246.23149594 -68.62418269 258.3490151 -71.44580078 270.65136719 C-72.11971209 273.50732611 -72.86355206 276.34146095 -73.61523438 279.17773438 C-87.38619343 331.78174274 -78.43941978 386.3472457 -54.9465332 434.67797852 C-54.56585693 435.46744873 -54.18518066 436.25691895 -53.79296875 437.0703125 C-53.4477417 437.77945801 -53.10251465 438.48860352 -52.74682617 439.21923828 C-52 441 -52 441 -52 443 C-51.34 443 -50.68 443 -50 443 C-49.72027344 443.60585937 -49.44054688 444.21171875 -49.15234375 444.8359375 C-46.01508886 451.39290109 -42.30869118 457.15932974 -38 463 C-37.33097656 463.93714844 -36.66195313 464.87429688 -35.97265625 465.83984375 C-28.10318712 476.66925788 -19.25023081 486.38212444 -9 495 C-2.1896952 501.32385446 3.96409481 508.40844581 4.97265625 517.91015625 C5.04144286 523.16741859 3.01921036 528.47598705 -0.25 532.5625 C-4.93773945 536.41314312 -10.20129787 537.65470342 -16.0546875 538.61328125 C-17.64405407 538.89145675 -19.23340909 539.16969825 -20.82275391 539.44799805 C-21.64817688 539.5889389 -22.47359985 539.72987976 -23.32403564 539.87509155 C-43.20413954 543.2838908 -62.98915514 547.09619519 -82 554 C-83.40163848 554.48122579 -84.80404891 554.96020634 -86.20703125 555.4375 C-87.72150892 555.95788318 -89.23583224 556.47871578 -90.75 557 C-91.44794678 557.2371875 -92.14589355 557.474375 -92.86499023 557.71875 C-97.1380283 559.21190419 -101.12529211 560.97447136 -105.125 563.09619141 C-107.12952177 564.06243354 -109.12145864 564.73260008 -111.25 565.375 C-116.17566963 566.92282327 -120.6307648 569.22075472 -125.203125 571.59765625 C-127.7655426 572.88244384 -130.33159053 573.95954454 -133 575 C-135.00847365 575.98287008 -137.00819591 576.98377342 -139 578 C-139.9075 578.433125 -140.815 578.86625 -141.75 579.3125 C-146.29242797 581.67106837 -150.62750971 584.34272135 -155 587 C-156.60370577 587.95910442 -158.20787104 588.91744093 -159.8125 589.875 C-161.54204788 590.91603359 -163.27117539 591.95776573 -165 593 C-165.55751953 593.33354492 -166.11503906 593.66708984 -166.68945312 594.01074219 C-168.48356011 595.08544936 -170.27331727 596.1671188 -172.0625 597.25 C-173.16722656 597.91515625 -174.27195312 598.5803125 -175.41015625 599.265625 C-178.07733166 600.74272404 -178.07733166 600.74272404 -179 603 C-180.66884329 603.94973117 -182.3395874 604.89633619 -184.02148438 605.82275391 C-187.34095145 607.79788597 -190.26424314 610.24783936 -193.25 612.6875 C-199.60284464 617.86761488 -199.60284464 617.86761488 -203 619 C-203 619.66 -203 620.32 -203 621 C-206.46153846 624 -206.46153846 624 -209 624 C-209.33 624.99 -209.66 625.98 -210 627 C-211.4609375 628.4375 -211.4609375 628.4375 -213.375 630 C-217.03669198 633.10447798 -220.48119213 636.35955566 -223.875 639.75 C-224.80054688 640.67296875 -225.72609375 641.5959375 -226.6796875 642.546875 C-229.10076575 644.96831675 -229.10076575 644.96831675 -231 648 C-231.66 648 -232.32 648 -233 648 C-233.226875 648.52980469 -233.45375 649.05960938 -233.6875 649.60546875 C-235.43725081 652.79772246 -237.71068213 655.50023551 -240 658.3125 C-247.91459814 668.21428482 -255.23048951 678.69034795 -261 690 C-261.30147949 690.5892627 -261.60295898 691.17852539 -261.91357422 691.78564453 C-265.81439391 699.43229683 -269.65949103 707.0895754 -273 715 C-273.52207031 716.18207031 -274.04414062 717.36414062 -274.58203125 718.58203125 C-279.12775332 729.05192061 -282.48717966 739.67540054 -285.39501953 750.70703125 C-285.89188555 752.59022966 -286.409833 754.46785374 -286.93359375 756.34375 C-299.17512134 803.53388743 -291.67838299 856.22032299 -269 899 C-268.4946875 899.96679688 -267.989375 900.93359375 -267.46875 901.9296875 C-263.56285864 909.26362181 -259.40828034 916.62461036 -254.29296875 923.19140625 C-253 925 -253 925 -253 927 C-252.34 927 -251.68 927 -251 927 C-249.58984375 928.6171875 -249.58984375 928.6171875 -247.9375 930.875 C-242.83996461 937.60459454 -237.45045724 944.09227187 -230.9375 949.5 C-229.968125 950.325 -228.99875 951.15 -228 952 C-228 952.66 -228 953.32 -228 954 C-227.401875 954.28875 -226.80375 954.5775 -226.1875 954.875 C-224 956 -224 956 -221 958 C-221 958.66 -221 959.32 -221 960 C-220.01 960 -219.02 960 -218 960 C-216.30713738 961.64005235 -214.6454678 963.31240074 -213 965 C-210.76723561 966.80552876 -208.43015179 968.43927584 -206.0625 970.0625 C-205.38010254 970.53075195 -204.69770508 970.99900391 -203.99462891 971.48144531 C-194.7342135 977.68791579 -184.87368967 982.84934721 -175 988 C-174.30036133 988.36641602 -173.60072266 988.73283203 -172.87988281 989.11035156 C-148.24828683 1001.93799134 -122.11924293 1010.65775615 -94.90625 1016.00390625 C-91.93356695 1016.58810309 -89.01118397 1017.24113223 -86.0859375 1018.02734375 C-80.99972953 1019.33009557 -75.83017292 1019.93144397 -70.625 1020.5625 C-69.02192993 1020.75755127 -69.02192993 1020.75755127 -67.38647461 1020.95654297 C-58.25299109 1022.0312315 -49.1874345 1022.68291719 -40 1023 C-38.83887695 1023.04366699 -37.67775391 1023.08733398 -36.48144531 1023.13232422 C12.17420145 1026.74088508 12.17420145 1026.74088508 59 1017 C59.66 1017 60.32 1017 61 1017 C61 1016.34 61 1015.68 61 1015 C62.65 1014.67 64.3 1014.34 66 1014 C66 1013.34 66 1012.68 66 1012 C67.32 1011.67 68.64 1011.34 70 1011 C70 1010.34 70 1009.68 70 1009 C71.57421875 1007.484375 71.57421875 1007.484375 73.6875 1005.75 C76.35349133 1003.49924272 78.71010091 1001.29950455 80.875 998.5625 C81.57625 997.716875 82.2775 996.87125 83 996 C83.66 996 84.32 996 85 996 C85.2784375 995.42765625 85.556875 994.8553125 85.84375 994.265625 C86.98273792 992.03382434 88.19936383 989.89129126 89.5 987.75 C89.9228125 987.04359375 90.345625 986.3371875 90.78125 985.609375 C91.1834375 985.07828125 91.585625 984.5471875 92 984 C92.66 984 93.32 984 94 984 C94.11472656 983.43539062 94.22945312 982.87078125 94.34765625 982.2890625 C95.07904774 979.72262291 96.13238252 977.70424649 97.4375 975.375 C97.96988281 974.41464844 98.50226563 973.45429687 99.05078125 972.46484375 C100.09681946 970.60545319 101.14380926 968.74658826 102.19677734 966.89111328 C108.73870331 955.49300653 108.73870331 955.49300653 113.9609375 943.4609375 C115.57055859 939.64867702 117.70951685 936.14834729 119.79956055 932.58618164 C122.73060277 927.55894304 125.35174769 922.41758957 127.91552734 917.1953125 C130.8153226 911.30746116 133.88496542 905.5184234 137.03100586 899.75854492 C138.67975375 896.69785515 140.0370834 893.88772682 141.1328125 890.5703125 C142 888 142 888 144 887 C144.69419563 885.34461042 145.35293158 883.67437292 146 882 C147.33519638 879.28042739 148.76155751 876.61039639 150.1875 873.9375 C150.58678711 873.18597656 150.98607422 872.43445312 151.39746094 871.66015625 C154.29283795 866.24374466 157.31775719 860.91670395 160.44921875 855.6328125 C161.86221071 853.23392943 163.22317563 850.81554663 164.5625 848.375 C171.78137443 835.33445264 180.08331317 822.9912048 188.72265625 810.85546875 C190.04342316 809.02883299 190.04342316 809.02883299 191 807 C191.66 807 192.32 807 193 807 C193.226875 806.484375 193.45375 805.96875 193.6875 805.4375 C195.48217618 802.10452995 197.49965015 798.85296329 200 796 C200.66 796 201.32 796 202 796 C202.226875 795.46375 202.45375 794.9275 202.6875 794.375 C205.56893621 789.16097257 209.3477221 785.60551537 214 782 C214.72703125 781.2575 215.4540625 780.515 216.203125 779.75 C219.39022328 776.61631677 222.75283718 773.83911298 226.25 771.0625 C226.9109668 770.53615967 227.57193359 770.00981934 228.25292969 769.4675293 C240.42066513 759.85977829 240.42066513 759.85977829 246 758 C246.33 757.34 246.66 756.68 247 756 C248.65984798 755.31653318 250.32836805 754.65411685 252 754 C253.72771233 753.00816515 255.45512549 752.01574565 257.17578125 751.01171875 C261.89095141 748.39666721 266.9009755 746.68483977 272 745 C272.90878906 744.68160156 273.81757812 744.36320312 274.75390625 744.03515625 C303.75859284 733.99041778 338.57050731 733.30249707 367.25 745.3671875 C368.84910202 746.17149774 370.43469751 747.00452424 371.9921875 747.88671875 C374.26289941 749.14577108 376.58686247 750.04426571 379 751 C380.77948425 751.85726979 382.55053724 752.7322722 384.3125 753.625 C385.63701172 754.29402344 385.63701172 754.29402344 386.98828125 754.9765625 C387.65214844 755.31429687 388.31601563 755.65203125 389 756 C389 756.66 389 757.32 389 758 C390.08474609 758.37705078 390.08474609 758.37705078 391.19140625 758.76171875 C394.23025725 760.10151815 396.38146771 761.70064394 398.9375 763.8125 C399.80890625 764.53050781 400.6803125 765.24851562 401.578125 765.98828125 C402.37734375 766.65214844 403.1765625 767.31601563 404 768 C404.57234375 768.44730469 405.1446875 768.89460938 405.734375 769.35546875 C428.10257653 786.97343393 442.36674144 818.25265799 446 846 C446.50951808 852.07415408 446.48380719 858.15916484 446.4375 864.25 C446.43545563 865.0612735 446.43341125 865.872547 446.43130493 866.70840454 C446.38127854 878.89907011 445.5388723 890.2685735 442 902 C441.76152344 902.92941406 441.52304688 903.85882812 441.27734375 904.81640625 C436.89000816 921.18353242 428.87968133 937.14283289 419.31640625 951.05078125 C418.22030875 952.67378616 417.22166942 954.36207852 416.25 956.0625 C415.63125 957.0215625 415.63125 957.0215625 415 958 C414.34 958 413.68 958 413 958 C412.86851562 958.82177734 412.86851562 958.82177734 412.734375 959.66015625 C410.51235839 966.73987937 404.20526486 972.92486676 399 978 C396.88997826 980.63855146 394.81974386 983.30301234 392.76953125 985.98828125 C392.18558594 986.65214844 391.60164063 987.31601563 391 988 C390.34 988 389.68 988 389 988 C388.67 988.99 388.34 989.98 388 991 C387.34 991 386.68 991 386 991 C385.690625 991.61875 385.38125 992.2375 385.0625 992.875 C384.375 994.25 383.6875 995.625 383 997 C382.01 997 381.02 997 380 997 C379.7525 997.61875 379.505 998.2375 379.25 998.875 C377.77229238 1001.38710296 376.56044823 1001.76107344 374 1003 C373.67 1003.99 373.34 1004.98 373 1006 C372.34 1006 371.68 1006 371 1006 C371 1006.66 371 1007.32 371 1008 C369.32464541 1009.51984883 367.58294378 1010.96706453 365.8125 1012.375 C364.84957031 1013.14585937 363.88664062 1013.91671875 362.89453125 1014.7109375 C361.93933594 1015.46632813 360.98414063 1016.22171875 360 1017 C359.09636719 1017.75539063 358.19273437 1018.51078125 357.26171875 1019.2890625 C355 1021 355 1021 353 1021 C352.67 1021.99 352.34 1022.98 352 1024 C350.50048828 1025.33105469 350.50048828 1025.33105469 348.5703125 1026.671875 C347.86197266 1027.1683252 347.15363281 1027.66477539 346.42382812 1028.17626953 C345.66521484 1028.69560059 344.90660156 1029.21493164 344.125 1029.75 C342.97547852 1030.55026611 342.97547852 1030.55026611 341.80273438 1031.36669922 C336.59777413 1034.96887259 331.32160922 1038.41673659 325.90625 1041.6953125 C323.86463266 1042.86613926 323.86463266 1042.86613926 323 1045 C320.0652503 1046.34839851 317.14952839 1047.3001048 314 1048 C314 1048.66 314 1049.32 314 1050 C313.12085938 1050.42925781 312.24171875 1050.85851563 311.3359375 1051.30078125 C308.34582452 1052.82384817 305.49694521 1054.4552809 302.625 1056.1875 C297.1021619 1059.44190647 291.45636729 1062.34926478 285.69580078 1065.15893555 C282.52867143 1066.70891794 279.43404381 1068.30464871 276.39453125 1070.09375 C273.28774718 1071.83841125 270.34627312 1073.11429022 267 1074.3125 C262.17476554 1076.10755309 257.56672735 1078.12335188 252.9375 1080.375 C244.75166514 1084.30377439 236.27384758 1087.18855636 227.67871094 1090.08203125 C224.99454619 1091.00186897 222.32877732 1091.96286478 219.6640625 1092.9375 C205.06120513 1098.23852836 190.25546545 1102.33902482 175.21728516 1106.17626953 C172.62332991 1106.84040711 170.03496145 1107.51968635 167.44921875 1108.21484375 C157.22226143 1110.90387477 146.86185396 1112.82522796 136.47265625 1114.7734375 C131.6782082 1115.67358509 126.8986212 1116.62771749 122.12280273 1117.62133789 C94.89630386 1123.25224187 67.15842768 1125.58855017 39.4375 1127.1875 C38.72342987 1127.23029083 38.00935974 1127.27308167 37.27365112 1127.31716919 C18.29446103 1128.43488162 -0.6513658 1128.14818845 -19.63452148 1127.25537109 C-22.46111381 1127.12390168 -25.28806086 1127.00495353 -28.11523438 1126.88671875 C-37.45702362 1126.4732852 -46.62414284 1125.81034901 -55.88110352 1124.45068359 C-59.13608232 1123.98033597 -62.37252324 1123.67463378 -65.64941406 1123.41894531 C-97.0447599 1120.8938896 -128.0553868 1113.51030634 -158 1104 C-158.81291504 1103.74186523 -159.62583008 1103.48373047 -160.46337891 1103.21777344 C-168.83453768 1100.53860424 -177.0653767 1097.81340732 -185 1094 C-188.20225908 1092.56565479 -191.38706845 1091.19526248 -194.734375 1090.12890625 C-198.47388707 1088.83618019 -201.98873961 1087.25080606 -205.5625 1085.5625 C-206.20896484 1085.26279297 -206.85542969 1084.96308594 -207.52148438 1084.65429688 C-210.2687957 1083.36588332 -212.9327936 1082.04082244 -215.52734375 1080.46484375 C-218.57073499 1078.66188685 -221.74569285 1077.38369357 -225 1076 C-227.37324997 1074.79602279 -229.72248712 1073.5769829 -232.0625 1072.3125 C-232.71025391 1071.96364746 -233.35800781 1071.61479492 -234.02539062 1071.25537109 C-236.02016883 1070.17607784 -238.01085506 1069.08963642 -240 1068 C-240.59796387 1067.67338379 -241.19592773 1067.34676758 -241.81201172 1067.01025391 C-254.45797986 1060.06327951 -266.35048906 1052.09537659 -277.92578125 1043.49609375 C-279.92101143 1041.9726106 -279.92101143 1041.9726106 -282 1041 C-282 1040.34 -282 1039.68 -282 1039 C-282.99 1038.67 -283.98 1038.34 -285 1038 C-285 1037.34 -285 1036.68 -285 1036 C-285.58394531 1035.73316406 -286.16789063 1035.46632813 -286.76953125 1035.19140625 C-296.52517065 1029.98042549 -305.18999777 1019.55615665 -312 1011 C-312 1010.34 -312 1009.68 -312 1009 C-312.66 1009 -313.32 1009 -314 1009 C-315.91843756 1006.6626631 -317.72086598 1004.31554999 -319.5 1001.875 C-320.03318848 1001.15304443 -320.56637695 1000.43108887 -321.11572266 999.68725586 C-322.75243923 997.46432902 -324.37820019 995.23382788 -326 993 C-326.71494629 992.01652588 -326.71494629 992.01652588 -327.44433594 991.01318359 C-330.33032152 987.03226378 -333.17627286 983.02531316 -336 979 C-336.64453125 978.08734375 -337.2890625 977.1746875 -337.953125 976.234375 C-338.78070312 975.03554687 -338.78070312 975.03554687 -339.625 973.8125 C-340.32496094 972.80123047 -340.32496094 972.80123047 -341.0390625 971.76953125 C-342 970 -342 970 -342 967 C-342.66 967 -343.32 967 -344 967 C-349.62499987 958.97297316 -353.74556752 949.73537031 -358.0402832 940.94628906 C-358.7041642 939.59994989 -359.37784587 938.25841544 -360.05932617 936.92089844 C-361.92768287 933.25231344 -363.60518981 929.65483541 -364.9375 925.75 C-366.28033368 921.92527527 -367.75150095 918.21381891 -369.375 914.5 C-385.44986265 875.95965653 -388.60906859 834.254678 -388 793 C-387.98743164 792.1352002 -387.97486328 791.27040039 -387.96191406 790.37939453 C-387.52073898 768.47820312 -384.1884713 745.54367007 -377.78735352 724.59008789 C-377.04858307 722.15981946 -376.33933597 719.72328954 -375.640625 717.28125 C-372.5312557 706.53524301 -368.93759812 696.11315118 -364.71289062 685.75439453 C-364.12163291 684.2993336 -363.55037548 682.83616421 -362.984375 681.37109375 C-361.79365668 678.50297463 -360.40803501 675.76787323 -359 673 C-358.16275391 671.29070312 -358.16275391 671.29070312 -357.30859375 669.546875 C-350.16358521 654.99934551 -342.75970634 640.82479961 -333.03125 627.8203125 C-331.41246332 625.57268945 -330.11935174 623.51854141 -329 621 C-328.34 621 -327.68 621 -327 621 C-326.5978125 620.1646875 -326.5978125 620.1646875 -326.1875 619.3125 C-324.34475342 615.72399349 -322.23673964 612.35510946 -320 609 C-319.34 609 -318.68 609 -318 609 C-317.74347656 608.43539062 -317.48695313 607.87078125 -317.22265625 607.2890625 C-313.22088128 599.79692151 -306.69376086 593.43534366 -300.98046875 587.2265625 C-298.97716583 585.05356718 -298.97716583 585.05356718 -297.36328125 582.7109375 C-296.91339844 582.14632812 -296.46351563 581.58171875 -296 581 C-295.34 581 -294.68 581 -294 581 C-293.7628125 580.43829102 -293.525625 579.87658203 -293.28125 579.29785156 C-291.70680643 576.47417342 -289.78315455 574.52385158 -287.5 572.234375 C-286.613125 571.34492187 -285.72625 570.45546875 -284.8125 569.5390625 C-283.4203125 568.15847656 -283.4203125 568.15847656 -282 566.75 C-281.071875 565.81414063 -280.14375 564.87828125 -279.1875 563.9140625 C-278.300625 563.02976562 -277.41375 562.14546875 -276.5 561.234375 C-275.6853125 560.42194336 -274.870625 559.60951172 -274.03125 558.77246094 C-272 557 -272 557 -270 557 C-270 556.34 -270 555.68 -270 555 C-268.20703125 553.44921875 -268.20703125 553.44921875 -265.8125 551.6875 C-262.2186438 549.03531757 -259.14948763 546.1640014 -256 543 C-254.18684216 541.45516868 -252.35317353 539.9340938 -250.5 538.4375 C-249.5821875 537.69371094 -248.664375 536.94992187 -247.71875 536.18359375 C-246.8215625 535.46300781 -245.924375 534.74242187 -245 534 C-244.17113281 533.32839844 -243.34226562 532.65679688 -242.48828125 531.96484375 C-239.93371792 529.94766109 -237.32804217 528.0280246 -234.6875 526.125 C-231.34047669 523.70795498 -228.02414546 521.26464583 -224.75 518.75 C-215.78688525 512 -215.78688525 512 -212 512 C-212 511.34 -212 510.68 -212 510 C-211.47792969 509.72027344 -210.95585938 509.44054688 -210.41796875 509.15234375 C-206.01873462 506.75626351 -201.76141017 504.23347856 -197.5625 501.5 C-192.52696186 498.26584912 -187.38559006 495.59333475 -182 493 C-180.06638498 492.04026477 -178.13622254 491.07382348 -176.20654297 490.10620117 C-174.12752544 489.06376627 -172.04620886 488.02601917 -169.96484375 486.98828125 C-167.53130123 485.77238557 -165.10919247 484.540398 -162.69140625 483.29296875 C-156.26995976 479.99456646 -149.84464533 477.29257042 -143 475 C-141.783125 474.5875 -140.56625 474.175 -139.3125 473.75 C-138.549375 473.5025 -137.78625 473.255 -137 473 C-135.40102163 465.1164798 -136.83202373 460.92083705 -140.5625 453.9375 C-141.50196153 452.06869448 -142.43683911 450.19757774 -143.3671875 448.32421875 C-143.82319336 447.41333496 -144.27919922 446.50245117 -144.74902344 445.56396484 C-151.46802472 431.79289704 -155.07851053 416.74028377 -159 402 C-159.24669434 401.08573242 -159.49338867 400.17146484 -159.74755859 399.22949219 C-162.95859194 387.27470556 -165.52657222 375.30019544 -167 363 C-167.14574463 361.79790894 -167.14574463 361.79790894 -167.29443359 360.5715332 C-168.28689363 350.82873742 -168.15065678 341.04698121 -168.13037109 331.26538086 C-168.1250303 328.20486454 -168.13033194 325.14449613 -168.13671875 322.08398438 C-168.1446769 306.24116541 -167.34553251 290.81749425 -164.89819336 275.15380859 C-164.55857546 272.97482013 -164.23083645 270.79426412 -163.90429688 268.61328125 C-162.93376533 262.2681232 -161.78402668 256.17489691 -160 250 C-159.64510504 248.08790962 -159.32207465 246.16955883 -159.03515625 244.24609375 C-158.10540486 238.43762748 -156.87434927 232.76505712 -155.4375 227.0625 C-155.1806543 226.04309326 -154.92380859 225.02368652 -154.65917969 223.97338867 C-148.98547942 201.96374497 -141.55145107 180.4856116 -134.05566406 159.04541016 C-132.35179441 154.13003781 -130.73062588 149.18898648 -129.1328125 144.23828125 C-127.89116878 140.68889283 -126.50112258 137.21855897 -125.09277344 133.73266602 C-123.18097959 128.95190004 -121.37185137 124.13278569 -119.5625 119.3125 C-119.16708008 118.26030273 -118.77166016 117.20810547 -118.36425781 116.12402344 C-116.21348351 110.36447254 -114.15418778 104.59555423 -112.25 98.75 C-110.5454187 93.52069127 -108.61430919 88.47602934 -106.44921875 83.421875 C-104.57316674 78.99216729 -102.78506267 74.52950645 -101 70.0625 C-100.65090576 69.19181885 -100.30181152 68.3211377 -99.94213867 67.42407227 C-98.06274225 62.72137328 -96.25169553 58.00206592 -94.5 53.25 C-86.9693424 33.58942412 -76.05052754 13.75577082 -58 2 C-57.195625 1.443125 -56.39125 0.88625 -55.5625 0.3125 C-38.36483547 -8.49605988 -17.29788303 -8.1217408 0 0 Z " fill="#FEFEFE" transform="translate(1214,714)"/>
<path d="M0 0 C0.94262618 -0.00165078 1.88525236 -0.00330156 2.85644298 -0.00500236 C6.00316384 -0.0093033 9.14983734 -0.00653363 12.29655933 -0.00377727 C14.58989368 -0.00542804 16.88322775 -0.00751483 19.17656136 -0.00999737 C25.49299442 -0.0155592 31.80941391 -0.01489248 38.12584864 -0.01321978 C44.28415158 -0.01207405 50.44245182 -0.01660069 56.60075322 -0.0204838 C69.3490462 -0.0283487 82.09733638 -0.03144542 94.8456316 -0.03192973 C107.76406967 -0.03243233 120.68250461 -0.0350814 133.60094166 -0.04033732 C134.41708491 -0.04066746 135.23322816 -0.04099759 136.07410302 -0.04133773 C139.39819563 -0.04268775 142.72228823 -0.04405042 146.04638082 -0.04542983 C185.39157847 -0.06172805 224.73677551 -0.06811808 264.08197595 -0.0728777 C283.67795947 -0.0752616 303.27394265 -0.07896523 322.86992591 -0.0829148 C385.7422046 -0.09557951 448.61448328 -0.1063629 511.48676323 -0.10975526 C514.49146236 -0.1099175 517.49616148 -0.11008306 520.50086061 -0.11024964 C526.52673748 -0.11058344 532.55261434 -0.11091392 538.57849121 -0.1112442 C545.63318703 -0.1116311 552.68788284 -0.11202071 559.74257865 -0.11241527 C561.76168286 -0.11252769 563.78078706 -0.1126391 565.79989127 -0.11274952 C630.62916256 -0.116298 695.45842276 -0.13137234 760.28768982 -0.15468726 C806.87427434 -0.17143468 853.46085677 -0.18690641 900.04744434 -0.19142222 C901.00604354 -0.19151571 901.96464274 -0.1916092 902.95229041 -0.19170551 C923.9987585 -0.19372482 945.04522656 -0.19488065 966.09169475 -0.1952341 C973.62318047 -0.19537027 981.1546662 -0.19557926 988.68615192 -0.19582735 C990.55974523 -0.19588891 992.43333854 -0.19594723 994.30693186 -0.1960023 C1024.13117221 -0.19692118 1053.95540097 -0.20687811 1083.77963751 -0.22145979 C1113.83256791 -0.23609443 1143.88548411 -0.2411061 1173.93841744 -0.23304025 C1178.09778625 -0.23192498 1182.25715508 -0.23091429 1186.41652393 -0.22996593 C1187.63946985 -0.22968097 1187.63946985 -0.22968097 1188.88712175 -0.22939027 C1201.76009471 -0.22666409 1214.63304128 -0.23397453 1227.5060085 -0.24553929 C1240.18597941 -0.2567195 1252.86591328 -0.25707213 1265.54588481 -0.24616911 C1272.31968683 -0.2406346 1279.09338666 -0.24004213 1285.8671869 -0.25267783 C1337.3820871 -0.34285209 1337.3820871 -0.34285209 1359.05994129 3.1276505 C1360.52273607 3.34095489 1361.98583976 3.55215718 1363.44931793 3.76072121 C1366.68917155 4.23621822 1369.90271685 4.78211981 1373.12244129 5.3776505 C1374.26616199 5.58672032 1375.4098827 5.79579015 1376.5882616 6.01119542 C1430.03037211 16.16284667 1481.46757341 38.59672929 1525.05994129 71.1276505 C1525.64130848 71.55884191 1526.22267567 71.99003331 1526.82166004 72.43429112 C1550.23880053 89.87657769 1573.11472667 110.03981926 1591.05994129 133.1276505 C1592.63982666 134.98475596 1594.22338159 136.83874379 1595.80994129 138.6901505 C1644.57761624 197.33196056 1677.38107485 278.3801876 1677.18759179 355.06770921 C1677.19006796 356.48164848 1677.19006796 356.48164848 1677.19259415 357.92415218 C1677.19689509 361.07087305 1677.19412542 364.21754655 1677.19136906 367.36426854 C1677.19301983 369.65760289 1677.19510662 371.95093696 1677.19758916 374.24427056 C1677.20315099 380.56070363 1677.20248427 386.87712312 1677.20081157 393.19355784 C1677.19966584 399.35186079 1677.20419248 405.51016102 1677.20807559 411.66846243 C1677.21594049 424.41675541 1677.21903721 437.16504559 1677.21952152 449.91334081 C1677.22002412 462.83177888 1677.2226732 475.75021382 1677.22792912 488.66865087 C1677.22825925 489.48479411 1677.22858938 490.30093736 1677.22892952 491.14181223 C1677.23027954 494.46590483 1677.23164221 497.78999744 1677.23302163 501.11409003 C1677.24931984 540.45928767 1677.25570987 579.80448471 1677.2604695 619.14968516 C1677.26285339 638.74566868 1677.26655702 658.34165186 1677.27050659 677.93763512 C1677.2831713 740.80991381 1677.29395469 803.68219249 1677.29734705 866.55447244 C1677.29750929 869.55917156 1677.29767485 872.56387069 1677.29784144 875.56856982 C1677.29817523 881.59444668 1677.29850571 887.62032355 1677.29883599 893.64620042 C1677.29922289 900.70089623 1677.2996125 907.75559205 1677.30000706 914.81028786 C1677.30011948 916.82939206 1677.30023089 918.84849627 1677.30034131 920.86760047 C1677.30388979 985.69687176 1677.31896413 1050.52613197 1677.34227905 1115.35539903 C1677.35902647 1161.94198355 1677.3744982 1208.52856598 1677.37901402 1255.11515355 C1677.37915424 1256.55305235 1677.37915424 1256.55305235 1677.37929731 1258.01999961 C1677.38131661 1279.06646771 1677.38247244 1300.11293577 1677.38282589 1321.15940396 C1677.38296206 1328.69088968 1677.38317105 1336.2223754 1677.38341914 1343.75386113 C1677.3834807 1345.62745444 1677.38353902 1347.50104775 1677.38359409 1349.37464106 C1677.38451297 1379.19888142 1677.39446991 1409.02311018 1677.40905158 1438.84734672 C1677.42368622 1468.90027712 1677.42869789 1498.95319332 1677.42063204 1529.00612665 C1677.41951677 1533.16549546 1677.41850608 1537.32486429 1677.41755772 1541.48423314 C1677.41736775 1542.29953042 1677.41717778 1543.1148277 1677.41698206 1543.95483096 C1677.41425588 1556.82780392 1677.42156632 1569.70075048 1677.43313108 1582.57371771 C1677.44431129 1595.25368862 1677.44466392 1607.93362248 1677.4337609 1620.61359401 C1677.4282264 1627.38739604 1677.42763392 1634.16109587 1677.44026962 1640.93489611 C1677.53054441 1692.57911397 1677.53054441 1692.57911397 1674.05994129 1714.1276505 C1673.75618221 1716.14205062 1673.45303792 1718.15654354 1673.15048814 1720.17112565 C1662.6953828 1789.18705605 1631.00042092 1853.89136952 1585.05994129 1906.1276505 C1584.24783192 1907.05190831 1583.43572254 1907.97616612 1582.59900379 1908.92843175 C1570.66529207 1922.2023911 1558.16710214 1935.16273887 1544.05994129 1946.1276505 C1542.20283583 1947.70753587 1540.348848 1949.2910908 1538.49744129 1950.8776505 C1479.8911575 1999.66587129 1398.80327211 2032.44877363 1322.11988258 2032.255301 C1320.70594331 2032.25777717 1320.70594331 2032.25777717 1319.26343961 2032.26030336 C1316.11671875 2032.2646043 1312.97004525 2032.26183463 1309.82332325 2032.25907826 C1307.5299889 2032.26072903 1305.23665483 2032.26281583 1302.94332123 2032.26529837 C1296.62688817 2032.27086019 1290.31046867 2032.27019348 1283.99403395 2032.26852078 C1277.835731 2032.26737505 1271.67743077 2032.27190169 1265.51912936 2032.2757848 C1252.77083638 2032.2836497 1240.0225462 2032.28674642 1227.27425098 2032.28723073 C1214.35581291 2032.28773333 1201.43737797 2032.2903824 1188.51894093 2032.29563832 C1187.29472605 2032.29613352 1187.29472605 2032.29613352 1186.04577956 2032.29663873 C1182.72168696 2032.29798875 1179.39759435 2032.29935142 1176.07350176 2032.30073083 C1136.72830412 2032.31702905 1097.38310708 2032.32341908 1058.03790663 2032.3281787 C1038.44192311 2032.3305626 1018.84593993 2032.33426622 999.24995667 2032.3382158 C936.37767798 2032.35088051 873.5053993 2032.3616639 810.63311935 2032.36505626 C807.62842023 2032.3652185 804.6237211 2032.36538406 801.61902197 2032.36555064 C795.59314511 2032.36588444 789.56726824 2032.36621492 783.54139137 2032.3665452 C776.48669556 2032.3669321 769.43199974 2032.3673217 762.37730393 2032.36771626 C760.35819973 2032.36782868 758.33909552 2032.3679401 756.31999132 2032.36805052 C691.49072003 2032.37159899 626.66145983 2032.38667334 561.83219277 2032.40998826 C515.24560824 2032.42673568 468.65902581 2032.44220741 422.07243824 2032.44672322 C421.11383904 2032.44681671 420.15523984 2032.44691019 419.16759218 2032.44700651 C398.12112408 2032.44902582 377.07465602 2032.45018165 356.02818783 2032.4505351 C348.49670211 2032.45067127 340.96521639 2032.45088026 333.43373066 2032.45112835 C331.56013735 2032.45118991 329.68654404 2032.45124823 327.81295073 2032.4513033 C297.98871037 2032.45222218 268.16448161 2032.46217911 238.34024507 2032.47676079 C208.28731467 2032.49139543 178.23439848 2032.4964071 148.18146514 2032.48834124 C144.02209633 2032.48722598 139.8627275 2032.48621529 135.70335865 2032.48526692 C134.88806137 2032.48507696 134.07276409 2032.48488699 133.23276083 2032.48469126 C120.35978787 2032.48196508 107.48684131 2032.48927553 94.61387408 2032.50084029 C81.93390317 2032.51202049 69.25396931 2032.51237313 56.57399778 2032.50147011 C49.80019576 2032.4959356 43.02649592 2032.49534313 36.25269568 2032.50797883 C-15.26220452 2032.59815309 -15.26220452 2032.59815309 -36.94005871 2029.1276505 C-38.40285348 2028.91434611 -39.86595718 2028.70314382 -41.32943535 2028.49457979 C-44.56928897 2028.01908278 -47.78283426 2027.47318119 -51.00255871 2026.8776505 C-52.14627941 2026.66858068 -53.29000011 2026.45951085 -54.46837902 2026.24410558 C-107.91048953 2016.09245433 -159.34769083 1993.65857171 -202.94005871 1961.1276505 C-203.81210949 1960.48086339 -203.81210949 1960.48086339 -204.70177746 1959.82100987 C-228.11891794 1942.37872331 -250.99484408 1922.21548174 -268.94005871 1899.1276505 C-270.51994408 1897.27054504 -272.10349901 1895.41655721 -273.69005871 1893.5651505 C-322.45773366 1834.92334044 -355.26119227 1753.8751134 -355.06770921 1677.18759179 C-355.07018538 1675.77365252 -355.07018538 1675.77365252 -355.07271157 1674.33114881 C-355.07701251 1671.18442795 -355.07424284 1668.03775445 -355.07148647 1664.89103246 C-355.07313724 1662.59769811 -355.07522404 1660.30436404 -355.07770658 1658.01103044 C-355.0832684 1651.69459737 -355.08260169 1645.37817788 -355.08092899 1639.06174316 C-355.07978326 1632.90344021 -355.0843099 1626.74513997 -355.08819301 1620.58683857 C-355.0960579 1607.83854559 -355.09915462 1595.09025541 -355.09963894 1582.34196019 C-355.10014154 1569.42352212 -355.10279061 1556.50508718 -355.10804653 1543.58665013 C-355.10854173 1542.36243526 -355.10854173 1542.36243526 -355.10904694 1541.11348877 C-355.11039696 1537.78939616 -355.11175962 1534.46530356 -355.11313904 1531.14121097 C-355.12943725 1491.79601332 -355.13582729 1452.45081629 -355.14058691 1413.10561584 C-355.1429708 1393.50963232 -355.14667443 1373.91364914 -355.15062401 1354.31766588 C-355.16328872 1291.44538719 -355.17407211 1228.57310851 -355.17746447 1165.70082856 C-355.17762671 1162.69612943 -355.17779227 1159.69143031 -355.17795885 1156.68673118 C-355.17829265 1150.66085431 -355.17862313 1144.63497745 -355.17895341 1138.60910058 C-355.17934031 1131.55440477 -355.17972991 1124.49970895 -355.18012447 1117.44501314 C-355.18023689 1115.42590893 -355.18034831 1113.40680473 -355.18045873 1111.38770053 C-355.1840072 1046.55842923 -355.19908155 981.72916903 -355.22239647 916.89990197 C-355.23914389 870.31331745 -355.25461562 823.72673502 -355.25913143 777.14014745 C-355.25922492 776.18154825 -355.2593184 775.22294905 -355.25941472 774.23530139 C-355.26143403 753.18883329 -355.26258986 732.14236523 -355.26294331 711.09589704 C-355.26307948 703.56441132 -355.26328847 696.03292559 -355.26353656 688.50143987 C-355.26359812 686.62784656 -355.26365644 684.75425325 -355.26371151 682.88065994 C-355.26463039 653.05641958 -355.27458732 623.23219082 -355.289169 593.40795428 C-355.30380364 563.35502388 -355.30881531 533.30210768 -355.30074945 503.24917435 C-355.29963419 499.08980554 -355.29862349 494.93043671 -355.29767513 490.77106786 C-355.29748516 489.95577058 -355.2972952 489.1404733 -355.29709947 488.30047004 C-355.29437329 475.42749708 -355.30168374 462.55455051 -355.3132485 449.68158329 C-355.3244287 437.00161238 -355.32478133 424.32167851 -355.31387832 411.64170698 C-355.30834381 404.86790496 -355.30775134 398.09420513 -355.32038704 391.32040489 C-355.41066183 339.67618703 -355.41066183 339.67618703 -351.94005871 318.1276505 C-351.63629963 316.11325038 -351.33315534 314.09875746 -351.03060555 312.08417535 C-342.31620221 254.55891518 -318.70670472 198.71595377 -283.94005871 152.1276505 C-283.5088673 151.54628331 -283.0776759 150.96491612 -282.63341808 150.36593175 C-265.19113152 126.94879126 -245.02788995 104.07286512 -221.94005871 86.1276505 C-220.08295325 84.54776513 -218.22896542 82.9642102 -216.37755871 81.3776505 C-157.73574864 32.60997555 -76.68752161 -0.19348306 0 0 Z M-139.31847668 39.82931066 C-141.87863222 41.097229 -144.45463518 42.32520764 -147.03771496 43.54561925 C-166.90456409 53.04774707 -185.4231776 64.81278352 -202.94005871 78.1276505 C-203.58829601 78.61894444 -204.23653332 79.11023839 -204.90441418 79.61642003 C-211.66957934 84.7704191 -218.21181955 90.0877496 -224.46349621 95.8620255 C-226.47290814 97.70028879 -228.51144709 99.47872155 -230.57677746 101.2526505 C-235.72337291 105.74601498 -240.54643041 110.55000535 -245.37755871 115.3776505 C-246.26765636 116.25550206 -247.15775402 117.13335362 -248.07482433 118.03780675 C-254.13718641 124.08688388 -259.60014713 130.43875836 -264.94005871 137.1276505 C-265.81515107 138.16694276 -266.69526174 139.20207602 -267.58458996 140.229213 C-283.43611668 158.67981887 -296.59614268 179.65894357 -307.94005871 201.1276505 C-308.38349621 201.9639298 -308.82693371 202.80020909 -309.28380871 203.66183019 C-319.80590539 223.66726543 -328.27993271 244.53004749 -334.94005871 266.1276505 C-335.2945509 267.26331456 -335.64904308 268.39897862 -336.01427746 269.56905675 C-340.46777239 284.47858326 -343.70510831 299.70293166 -346.12755871 315.0651505 C-346.28224621 316.02646886 -346.43693371 316.98778722 -346.59630871 317.97823644 C-349.42332527 336.79018798 -350.23660025 355.62609043 -350.1945343 374.62385011 C-350.19693053 376.90748747 -350.20019978 379.19112405 -350.2042509 381.47475907 C-350.21280704 387.70837127 -350.20907123 393.94192264 -350.20319518 400.17553566 C-350.1994365 406.27032661 -350.20516333 412.36510294 -350.21054276 418.45989146 C-350.2213293 431.06347649 -350.22271291 443.66704654 -350.21884441 456.27063489 C-350.21495921 469.03084629 -350.21543726 481.79104654 -350.22115421 494.55125737 C-350.22151304 495.35931329 -350.22187186 496.16736922 -350.22224156 496.99991168 C-350.22371659 500.29139509 -350.225221 503.58287849 -350.22676303 506.87436186 C-350.2423733 540.23450932 -350.24507966 573.5946491 -350.24260697 606.95479956 C-350.2422685 611.55975463 -350.2419464 616.16470969 -350.24164128 620.76966476 C-350.24158024 621.68440959 -350.2415192 622.59915442 -350.2414563 623.54161878 C-350.24018283 643.83993826 -350.24278868 664.1382567 -350.24616735 684.43657587 C-350.2469381 689.07550973 -350.24768284 693.71444361 -350.24843236 698.35337748 C-350.24873406 700.21527016 -350.24903594 702.07716285 -350.24933801 703.93905553 C-350.24948769 704.86198414 -350.24963737 705.78491274 -350.24979158 706.73580887 C-350.25009512 708.60269298 -350.2503998 710.46957709 -350.25070563 712.3364612 C-350.25937558 765.29061789 -350.26402483 818.24477366 -350.259758 871.19893098 C-350.25967994 872.17893019 -350.25960188 873.1589294 -350.25952146 874.16862555 C-350.25864871 885.09589747 -350.25771945 896.02316938 -350.25677083 906.95044129 C-350.25668532 907.93695478 -350.25659981 908.92346826 -350.25651171 909.93987609 C-350.25599292 915.92415898 -350.25599292 915.92415898 -350.25546948 921.90844186 C-350.24993499 984.99461938 -350.25747346 1048.08078226 -350.27624035 1111.16695714 C-350.28096286 1127.0615974 -350.2856435 1142.95623766 -350.29007721 1158.850878 C-350.29035053 1159.82967592 -350.29062385 1160.80847384 -350.29090546 1161.8169323 C-350.2992817 1192.00236877 -350.30395688 1222.18780403 -350.30478477 1252.37324166 C-350.30481114 1253.32146062 -350.30483751 1254.26967957 -350.30486467 1255.24663244 C-350.30540555 1276.0660537 -350.30503278 1296.88547486 -350.30382496 1317.70489609 C-350.30339936 1325.15511815 -350.30303423 1332.60534022 -350.30269552 1340.05556228 C-350.30261021 1341.90886272 -350.30252128 1343.76216316 -350.3024287 1345.6154636 C-350.30098234 1375.09685524 -350.30809056 1404.5782369 -350.31943266 1434.05962615 C-350.33110395 1464.59444415 -350.33162318 1495.1292444 -350.31958923 1525.66406249 C-350.31833751 1528.949853 -350.31713401 1532.23564353 -350.31596851 1535.52143407 C-350.31567822 1536.32777615 -350.31538793 1537.13411823 -350.31508883 1537.96489491 C-350.31078021 1550.68141379 -350.31646487 1563.39790725 -350.32640871 1576.11442214 C-350.33599639 1588.64885203 -350.33470368 1601.18324309 -350.32220248 1613.71767079 C-350.3158153 1620.40982721 -350.31429841 1627.10188137 -350.32606582 1633.79403829 C-350.38454176 1669.53383858 -349.58038805 1704.05240514 -341.94005871 1739.1276505 C-341.76813 1739.92719151 -341.59620129 1740.72673253 -341.41906261 1741.55050206 C-335.69411964 1767.33268305 -326.29964925 1793.34265378 -314.94005871 1817.1276505 C-314.5304591 1817.99228917 -314.12085949 1818.85692784 -313.69884777 1819.74776769 C-295.21272555 1858.4950262 -269.38322465 1892.90122662 -239.06505871 1923.1901505 C-237.74634777 1924.50765294 -237.74634777 1924.50765294 -236.40099621 1925.85177159 C-230.50068313 1931.69644193 -224.50577871 1937.04284211 -217.94005871 1942.1276505 C-216.06216752 1943.72843167 -214.18734154 1945.33281335 -212.31505871 1946.9401505 C-194.48029485 1961.80628915 -174.43556374 1974.29796762 -153.94005871 1985.1276505 C-153.10377941 1985.571088 -152.26750011 1986.0145255 -151.40587902 1986.4714005 C-131.39420577 1996.99677814 -110.53454761 2005.441537 -88.94005871 2012.1276505 C-87.86240246 2012.47054112 -86.78474621 2012.81343175 -85.67443371 2013.166713 C-67.61448293 2018.6380774 -48.81676436 2022.58506913 -30.07353143 2024.76186903 C-27.73362211 2025.03501501 -25.39544449 2025.32307177 -23.05827744 2025.61876513 C-10.29803033 2027.16178153 2.30349618 2027.41029836 15.14482975 2027.38212609 C17.43263488 2027.3845205 19.72043922 2027.38778861 22.00824201 2027.39184269 C28.27206751 2027.40042386 34.53583272 2027.39665242 40.79965908 2027.39078697 C46.91816007 2027.38703613 53.03664637 2027.39274979 59.15514492 2027.39813455 C71.81224685 2027.40893503 84.46933386 2027.41030058 97.12643909 2027.4064362 C109.9447693 2027.40255393 122.7630884 2027.40302447 135.58141804 2027.408746 C136.79805504 2027.40928424 136.79805504 2027.40928424 138.03927058 2027.40983335 C141.3430084 2027.41130835 144.6467462 2027.41281275 147.95048399 2027.41435482 C181.45349373 2027.42997419 214.95649584 2027.43267042 248.45950857 2027.43019876 C253.08599133 2027.42986029 257.71247408 2027.4295382 262.33895683 2027.42923307 C263.7174571 2027.42914151 263.7174571 2027.42914151 265.12380586 2027.42904809 C285.50856977 2027.4277751 305.89333262 2027.43037962 326.27809622 2027.43375914 C330.93558948 2027.43452989 335.59308274 2027.43527463 340.250576 2027.43602416 C342.1198974 2027.43632585 343.9892188 2027.43662773 345.85854019 2027.4369298 C346.78514652 2027.43707948 347.71175284 2027.43722916 348.66643814 2027.43738337 C350.5407478 2027.43768691 352.41505746 2027.43799159 354.28936711 2027.43829742 C407.46300002 2027.44696887 460.63663201 2027.45161559 513.81026554 2027.44734979 C515.28671313 2027.4472327 515.28671313 2027.4472327 516.79298794 2027.44711325 C527.76840175 2027.44624049 538.74381556 2027.44531122 549.71922937 2027.44436262 C551.20554147 2027.44423435 551.20554147 2027.44423435 552.72188008 2027.4441035 C558.73262644 2027.44358471 558.73262644 2027.44358471 564.74337281 2027.44306127 C628.10183106 2027.43752736 691.46027474 2027.44506296 754.81873035 2027.46383214 C770.77991832 2027.46855461 786.7411063 2027.47323524 802.70229435 2027.477669 C803.68517637 2027.47794232 804.66805839 2027.47821564 805.68072471 2027.47849725 C835.99107369 2027.48687322 866.30142146 2027.49154865 896.61177158 2027.49237657 C898.03995254 2027.49241612 898.03995254 2027.49241612 899.49698563 2027.49245646 C920.40196509 2027.49299734 941.30694444 2027.49262458 962.21192387 2027.49141675 C969.69281027 2027.49099115 977.17369668 2027.49062602 984.6545831 2027.49028731 C986.51553461 2027.49020201 988.37648613 2027.49011307 990.23743765 2027.49002049 C1019.84548166 2027.48857389 1049.45351575 2027.49568396 1079.06155738 2027.50702445 C1109.72859439 2027.51869446 1140.39561373 2027.51921641 1171.06265083 2027.50718103 C1174.36231781 2027.5059293 1177.66198479 2027.5047258 1180.9616518 2027.5035603 C1182.17628015 2027.50312486 1182.17628015 2027.50312486 1183.41544644 2027.50268063 C1196.18899736 2027.49837094 1208.96252299 2027.50405853 1221.73606994 2027.5140005 C1234.32492507 2027.52358507 1246.91374154 2027.52229957 1259.50259448 2027.50979427 C1266.2246711 2027.50340429 1272.94664588 2027.50189723 1279.66872302 2027.51365761 C1310.90853332 2027.56443687 1341.35684041 2027.51355655 1372.05994129 2021.1276505 C1374.53777674 2020.64136927 1377.01760607 2020.16619312 1379.49744129 2019.6901505 C1393.52251255 2016.86686313 1407.07476836 2013.05250144 1420.62244129 2008.5026505 C1421.4050835 2008.24098088 1422.18772572 2007.97931127 1422.99408436 2007.70971227 C1436.35608888 2003.22419473 1449.33148712 1998.20585813 1462.05994129 1992.1276505 C1462.98403797 1991.69098058 1463.90813465 1991.25431066 1464.86023426 1990.80440831 C1510.87379812 1968.92019663 1555.65025694 1935.52050457 1587.05994129 1895.1276505 C1588.66095203 1893.24995502 1590.26531002 1891.37511005 1591.87244129 1889.5026505 C1598.08456108 1882.05003001 1603.60718001 1874.14631161 1609.05994129 1866.1276505 C1609.75821033 1865.10477941 1609.75821033 1865.10477941 1610.47058582 1864.06124425 C1628.0607643 1838.11651209 1641.78734792 1809.69820625 1652.05994129 1780.1276505 C1652.44424305 1779.03323644 1652.82854481 1777.93882237 1653.22449207 1776.81124425 C1659.37706641 1759.11783196 1663.68921922 1741.52860503 1667.05994129 1723.1276505 C1667.20620416 1722.37624603 1667.35246703 1721.62484156 1667.50316211 1720.85066726 C1673.20881711 1690.87328866 1672.49470245 1660.34317199 1672.44534395 1629.96696688 C1672.43845471 1623.87032446 1672.44590289 1617.77371169 1672.45277511 1611.67707203 C1672.46647427 1599.07967034 1672.4661748 1586.4823052 1672.45793247 1573.88490033 C1672.44964458 1561.13975529 1672.4479649 1548.39463424 1672.45414448 1535.64948773 C1672.45472575 1534.43671506 1672.45472575 1534.43671506 1672.45531877 1533.19944194 C1672.4569188 1529.90585649 1672.45856495 1526.61227107 1672.4602696 1523.31868568 C1672.47609289 1492.72440756 1672.47723358 1462.1301455 1672.46882725 1431.53586507 C1672.46073237 1402.06052361 1672.45756577 1372.58518975 1672.46138859 1343.10984731 C1672.46162103 1341.25540139 1672.4618525 1339.40095547 1672.462083 1337.54650955 C1672.46301447 1330.09347587 1672.46397048 1322.64044218 1672.46496229 1315.18740851 C1672.46771271 1294.35587742 1672.46942495 1273.52434631 1672.4703207 1252.69281507 C1672.47038211 1251.27013482 1672.47038211 1251.27013482 1672.47044475 1249.81871356 C1672.47167178 1219.61699576 1672.46829609 1189.41528028 1672.46177197 1159.2135632 C1672.46156122 1158.23463332 1672.46135047 1157.25570344 1672.46113334 1156.24710902 C1672.45769887 1140.35190693 1672.45404031 1124.45670489 1672.45036282 1108.56150285 C1672.43579367 1045.52202223 1672.4364721 982.48256073 1672.45105457 919.44308019 C1672.4547184 903.55333704 1672.45835166 887.66359388 1672.46177197 871.77385068 C1672.46198331 870.79534571 1672.46219465 869.81684074 1672.4624124 868.8086841 C1672.46888468 838.63542232 1672.47162308 808.46216212 1672.4703207 778.28889966 C1672.47027995 777.34117771 1672.4702392 776.39345576 1672.47019721 775.41701496 C1672.46925962 754.60949922 1672.46735839 733.80198365 1672.46458919 712.99446808 C1672.46360185 705.54889945 1672.4626626 698.10333081 1672.46173706 690.65776217 C1672.46150489 688.80564999 1672.4612687 686.95353781 1672.46102847 685.10142563 C1672.45721732 655.63785976 1672.46148474 626.17430223 1672.46957891 596.71073746 C1672.47786819 566.20335665 1672.47478008 535.69599505 1672.45898502 505.18861698 C1672.4573281 501.90674838 1672.45571797 498.62487977 1672.45414448 495.34301114 C1672.45375386 494.53763176 1672.45336324 493.73225238 1672.45296078 492.90246756 C1672.44706418 480.19577538 1672.45114129 467.48910728 1672.4594515 454.78241729 C1672.46742485 442.26127945 1672.46453384 429.74018186 1672.45040923 417.21904908 C1672.44315264 410.53279567 1672.4407744 403.84664364 1672.45162718 397.16038732 C1672.5470362 359.04424785 1672.5470362 359.04424785 1669.05994129 321.1276505 C1668.9354144 320.19903067 1668.81088751 319.27041084 1668.68258707 318.31365101 C1667.95161311 312.88620751 1667.09838701 307.50515246 1666.05994129 302.1276505 C1665.9033202 301.31586339 1665.7466991 300.50407628 1665.58533192 299.66768956 C1656.20986371 252.52093854 1636.73170003 205.54726868 1609.05994129 166.1276505 C1608.45134266 165.25100743 1608.45134266 165.25100743 1607.8304491 164.35665441 C1599.65475528 152.59234319 1591.05413081 141.13710766 1581.32556629 130.604213 C1579.48730301 128.59480106 1577.70887024 126.55626212 1575.93494129 124.49093175 C1571.44157681 119.3443363 1566.63758644 114.5212788 1561.80994129 109.6901505 C1560.93208973 108.80005284 1560.05423817 107.90995519 1559.14978504 106.99288487 C1553.10070791 100.9305228 1546.74883344 95.46756207 1540.05994129 90.1276505 C1539.02064903 89.25255814 1537.98551577 88.37244747 1536.95837879 87.48311925 C1504.60924636 59.69090795 1465.20293578 38.94644275 1425.05994129 25.1276505 C1423.42702137 24.55554845 1423.42702137 24.55554845 1421.76111317 23.97188878 C1404.06108158 17.81546643 1386.46829948 13.49972879 1368.05994129 10.1276505 C1366.92436613 9.90826351 1366.92436613 9.90826351 1365.76585005 9.68444447 C1336.14111234 4.07466011 1306.12900951 4.69554498 1276.1077374 4.7484492 C1270.02254467 4.75615142 1263.93737993 4.7494989 1257.85218816 4.74341153 C1245.27749544 4.73133184 1232.70284116 4.73326042 1220.12814808 4.74311757 C1207.4051622 4.7530373 1194.68219959 4.75633399 1181.9592104 4.75174069 C1180.74877334 4.75131014 1180.74877334 4.75131014 1179.513883 4.75087088 C1176.22667172 4.74967929 1172.93946046 4.74844012 1169.65224922 4.74714097 C1139.11408604 4.73507363 1108.57594056 4.7375515 1078.0377779 4.74932981 C1048.617432 4.76065997 1019.19709397 4.76661516 989.7767458 4.76514173 C987.92599172 4.76505632 986.07523765 4.76497144 984.22448357 4.76488709 C976.7863657 4.76453922 969.34824783 4.76415412 961.91012996 4.76372151 C941.12030596 4.76252713 920.33048202 4.7623449 899.540658 4.76292443 C898.59409966 4.76295046 897.64754132 4.76297648 896.67229939 4.7630033 C866.53019942 4.7639014 836.38810191 4.76919489 806.24600315 4.777632 C804.78046369 4.77804178 804.78046369 4.77804178 803.28531737 4.77845984 C787.42086059 4.78291307 771.55640388 4.78762805 755.69194718 4.79235873 C692.76871029 4.81110546 629.84548541 4.8175216 566.92224598 4.81197667 C562.94512899 4.81162968 558.968012 4.81128407 554.990895 4.81093838 C554.0075528 4.81085278 553.0242106 4.81076717 552.01107015 4.81067898 C541.12008184 4.80973279 530.22909352 4.80882107 519.3381052 4.80795121 C518.36136324 4.80787229 517.38462127 4.80779337 516.37828106 4.80771206 C463.61126964 4.80348673 410.84425957 4.8087983 358.07724881 4.8174625 C356.21625194 4.81776578 354.35525507 4.81806868 352.49425821 4.8183712 C351.57433948 4.81852079 350.65442075 4.81867038 349.7066257 4.81882451 C347.85076932 4.81912593 345.99491294 4.81942692 344.13905656 4.81972747 C339.51583844 4.82047631 334.89262032 4.82123231 330.2694022 4.82200364 C310.02449309 4.82534876 289.77958498 4.82742289 269.5346756 4.82606792 C268.16815466 4.82597711 268.16815466 4.82597711 266.77402724 4.82588447 C262.18774792 4.82557252 257.6014686 4.8252391 253.01518929 4.82489815 C219.82959664 4.82244424 186.64401566 4.82653077 153.45842621 4.84210815 C150.18397346 4.84361798 146.90952071 4.84509803 143.63506794 4.84655499 C142.42971769 4.8470961 142.42971769 4.8470961 141.20001694 4.84764815 C128.51368526 4.85316889 115.82736339 4.85205788 103.14103148 4.84815016 C90.64488907 4.84444647 78.14876551 4.84797239 65.65262725 4.85901437 C58.97768525 4.8647232 52.30278777 4.86717058 45.62784287 4.86084779 C-18.69727065 4.80519876 -80.82451239 10.77840359 -139.31847668 39.82931066 Z " fill="#000000" transform="translate(614.9400587081909,259.8723495006561)"/>
<path d="M0 0 C1.86011719 -0.02126953 1.86011719 -0.02126953 3.7578125 -0.04296875 C6.875 0.1875 6.875 0.1875 8.875 2.1875 C9.9578125 2.55875 9.9578125 2.55875 11.0625 2.9375 C17.92784948 5.98876644 22.14011691 10.80794213 24.98828125 17.734375 C27.99231585 29.43290622 27.01465953 41.72516849 20.875 52.1875 C18.33178282 56.28193378 15.66212404 60.2559939 12.875 64.1875 C12.215 65.1775 11.555 66.1675 10.875 67.1875 C10.215 67.1875 9.555 67.1875 8.875 67.1875 C8.58625 67.785625 8.2975 68.38375 8 69 C6.875 71.1875 6.875 71.1875 4.875 74.1875 C4.215 74.1875 3.555 74.1875 2.875 74.1875 C2.61074219 74.7762793 2.34648438 75.36505859 2.07421875 75.97167969 C0.83131056 78.26822584 -0.47506481 79.79583166 -2.3125 81.640625 C-3.23675781 82.56875 -3.23675781 82.56875 -4.1796875 83.515625 C-4.82164063 84.14984375 -5.46359375 84.7840625 -6.125 85.4375 C-7.08792969 86.41203125 -7.08792969 86.41203125 -8.0703125 87.40625 C-8.68648437 88.01984375 -9.30265625 88.6334375 -9.9375 89.265625 C-10.50082031 89.82668945 -11.06414062 90.38775391 -11.64453125 90.96582031 C-13.125 92.1875 -13.125 92.1875 -15.125 92.1875 C-15.62 93.6725 -15.62 93.6725 -16.125 95.1875 C-18.10846533 96.95323155 -20.08275327 98.57833862 -22.1875 100.1875 C-22.80584717 100.66590332 -23.42419434 101.14430664 -24.0612793 101.63720703 C-33.29584928 108.70416215 -42.79596453 115.66164646 -53.109375 121.07421875 C-55.44034841 122.361675 -57.61127774 123.81464843 -59.8125 125.3125 C-68.50386598 131.1875 -68.50386598 131.1875 -74.125 131.1875 C-74.125 131.8475 -74.125 132.5075 -74.125 133.1875 C-74.94742187 133.49042969 -75.76984375 133.79335937 -76.6171875 134.10546875 C-82.09264866 136.16034736 -87.39984194 138.24132775 -92.5625 141 C-96.24123603 142.92038422 -98.89661564 143.74386636 -103.125 143.1875 C-103.125 143.8475 -103.125 144.5075 -103.125 145.1875 C-105.765 145.1875 -108.405 145.1875 -111.125 145.1875 C-111.74609375 143.390625 -111.74609375 143.390625 -112.125 141.1875 C-111.04514994 139.37613861 -109.94451567 137.57536633 -108.76953125 135.82421875 C-106.74241075 132.57408493 -105.05814866 129.18559855 -103.375 125.75 C-100.05127147 118.9876268 -96.58109574 112.3172088 -93.00683594 105.68383789 C-91.50266934 102.87608257 -90.13446092 100.21588275 -89.125 97.1875 C-88.465 97.1875 -87.805 97.1875 -87.125 97.1875 C-87.02316406 96.30964844 -86.92132812 95.43179687 -86.81640625 94.52734375 C-86.08280991 90.98370043 -84.96649356 88.8076662 -83.0625 85.75 C-80.23713733 81.08930953 -77.59269896 76.38618618 -75.0625 71.5625 C-70.896376 63.67441232 -66.55426396 56.01226425 -61.26171875 48.81640625 C-59.9313171 46.96802114 -59.9313171 46.96802114 -58.3125 43.9375 C-47.53650168 24.77070456 -30.48399359 7.53204412 -9.265625 0.578125 C-6.16749457 0.01277273 -3.14652832 0.01642238 0 0 Z " fill="#4F4F4F" transform="translate(1533.125,1554.8125)"/>
<path d="M0 0 C0.54527344 0.46277344 1.09054687 0.92554688 1.65234375 1.40234375 C1.65234375 2.06234375 1.65234375 2.72234375 1.65234375 3.40234375 C2.64234375 3.73234375 3.63234375 4.06234375 4.65234375 4.40234375 C4.65234375 5.06234375 4.65234375 5.72234375 4.65234375 6.40234375 C5.31234375 6.40234375 5.97234375 6.40234375 6.65234375 6.40234375 C13.14131157 16.84759552 15.20251768 25.19472406 13.65234375 37.40234375 C12.71253691 41.01698544 11.45314038 44.13880617 9.65234375 47.40234375 C9.11609375 48.43359375 8.57984375 49.46484375 8.02734375 50.52734375 C7.34671875 51.45546875 7.34671875 51.45546875 6.65234375 52.40234375 C5.99234375 52.40234375 5.33234375 52.40234375 4.65234375 52.40234375 C4.32234375 53.39234375 3.99234375 54.38234375 3.65234375 55.40234375 C2.99234375 55.40234375 2.33234375 55.40234375 1.65234375 55.40234375 C1.32234375 56.39234375 0.99234375 57.38234375 0.65234375 58.40234375 C-6.81953768 64.41744327 -15.50046514 66.67144486 -24.84765625 67.83984375 C-37.51485941 66.25644336 -47.27971764 60.03119885 -55.171875 50.09375 C-60.17398121 42.8980291 -61.98822127 33.50985779 -60.90625 24.8828125 C-59.70256257 19.36853763 -58.25988449 14.25605749 -55.34765625 9.40234375 C-54.68765625 9.40234375 -54.02765625 9.40234375 -53.34765625 9.40234375 C-53.18265625 8.72171875 -53.01765625 8.04109375 -52.84765625 7.33984375 C-49.03535181 -0.12591912 -41.47288054 -4.22258149 -33.78515625 -6.78515625 C-20.99388462 -9.67666976 -10.63125248 -7.14202089 0 0 Z " fill="#FFFFFF" transform="translate(1517.34765625,1012.59765625)"/>
<path d="M0 0 C4.50001246 3.33800267 8.28408702 6.83924268 11.5625 11.38671875 C11.5625 12.04671875 11.5625 12.70671875 11.5625 13.38671875 C12.2225 13.38671875 12.8825 13.38671875 13.5625 13.38671875 C17.67978999 24.9482161 19.72524433 34.87315084 14.5625 46.38671875 C13.31914214 48.79767431 11.98884311 51.07505923 10.5625 53.38671875 C9.9025 53.38671875 9.2425 53.38671875 8.5625 53.38671875 C8.29179688 53.98613281 8.02109375 54.58554688 7.7421875 55.203125 C4.30112542 61.57250813 -2.4690399 64.94878294 -8.99609375 67.46484375 C-18.71879958 70.06933703 -28.61511762 69.42564784 -37.7421875 65.0859375 C-42.34801046 62.1822665 -45.85732958 58.44576547 -49.4375 54.38671875 C-49.98148438 53.85820313 -50.52546875 53.3296875 -51.0859375 52.78515625 C-57.55385388 46.09291907 -57.81915117 36.46001902 -57.69921875 27.76953125 C-57.3585664 23.36647252 -56.3191428 20.36711698 -54.4375 16.38671875 C-54.1075 15.45859375 -53.7775 14.53046875 -53.4375 13.57421875 C-52.36860049 11.23600106 -51.31172624 10.11677374 -49.4375 8.38671875 C-48.86386719 7.60683594 -48.29023437 6.82695313 -47.69921875 6.0234375 C-35.95369912 -7.6695258 -14.64750653 -9.69458365 0 0 Z " fill="#FFFFFF" transform="translate(1366.4375,1010.61328125)"/>
<path d="M0 0 C6.34732399 3.69181089 11.29040741 9.30872222 13.625 16.3125 C14.16024715 23.35305861 14.03418098 29.06233486 10.625 35.3125 C9.965 35.3125 9.305 35.3125 8.625 35.3125 C8.3775 35.93125 8.13 36.55 7.875 37.1875 C6.41871361 39.66318687 5.24687494 40.26375002 2.625 41.3125 C2.625 41.9725 2.625 42.6325 2.625 43.3125 C-3.58742686 45.97496865 -9.01821532 47.6930144 -15.66796875 45.5859375 C-20.62020975 43.54531558 -24.53995129 41.04921413 -28.375 37.3125 C-28.375 36.6525 -28.375 35.9925 -28.375 35.3125 C-29.365 34.9825 -30.355 34.6525 -31.375 34.3125 C-34.38459434 28.0703784 -35.90860778 21.89683293 -33.6484375 15.140625 C-31.60415114 10.71964799 -29.02017507 7.58381096 -25.375 4.3125 C-24.92125 3.77625 -24.4675 3.24 -24 2.6875 C-17.38705922 -2.90806528 -7.74472018 -3.60151449 0 0 Z " fill="#FFFFFF" transform="translate(1438.375,1086.6875)"/>
<path d="M0 0 C1 1 1 1 1.1328125 4.08984375 C1.13023438 5.35957031 1.12765625 6.62929688 1.125 7.9375 C1.12757812 9.20464844 1.13015625 10.47179687 1.1328125 11.77734375 C1 15 1 15 0 17 C-3.77450884 17.35947703 -5.84678896 17.07226936 -9.3125 15.4375 C-12 13 -12 13 -13.125 9.5625 C-12.97465177 5.27757546 -12.07940322 3.90832526 -9 1 C-5.78419562 -0.07193479 -3.36629251 -0.14636054 0 0 Z " fill="#585858" transform="translate(1511,812)"/>
<path d="M0 0 C0 3 0 3 -1.62060547 4.99291992 C-2.73266357 6.10050659 -2.73266357 6.10050659 -3.8671875 7.23046875 C-4.67027344 8.03291016 -5.47335937 8.83535156 -6.30078125 9.66210938 C-7.15027344 10.49548828 -7.99976563 11.32886719 -8.875 12.1875 C-9.71675781 13.03248047 -10.55851563 13.87746094 -11.42578125 14.74804688 C-17.73324001 21 -17.73324001 21 -20 21 C-18.58161241 17.77415322 -16.86824816 15.62194828 -14.375 13.14453125 C-13.66859375 12.44005859 -12.9621875 11.73558594 -12.234375 11.00976562 C-11.49703125 10.28466797 -10.7596875 9.55957031 -10 8.8125 C-9.26265625 8.07580078 -8.5253125 7.33910156 -7.765625 6.58007812 C-2.28101809 1.14050904 -2.28101809 1.14050904 0 0 Z " fill="#696969" transform="translate(1004,1340)"/>
</svg>
